<svg width="56" height="56" viewBox="0 0 56 56" fill="none" xmlns="http://www.w3.org/2000/svg">
<path d="M28 31.2665L16.5667 42.6999C16.1389 43.1276 15.5945 43.3415 14.9334 43.3415C14.2722 43.3415 13.7278 43.1276 13.3 42.6999C12.8722 42.2721 12.6584 41.7276 12.6584 41.0665C12.6584 40.4054 12.8722 39.861 13.3 39.4332L24.7334 27.9999L13.3 16.5665C12.8722 16.1388 12.6584 15.5943 12.6584 14.9332C12.6584 14.2721 12.8722 13.7276 13.3 13.2999C13.7278 12.8721 14.2722 12.6582 14.9334 12.6582C15.5945 12.6582 16.1389 12.8721 16.5667 13.2999L28 24.7332L39.4334 13.2999C39.8611 12.8721 40.4056 12.6582 41.0667 12.6582C41.7278 12.6582 42.2722 12.8721 42.7 13.2999C43.1278 13.7276 43.3417 14.2721 43.3417 14.9332C43.3417 15.5943 43.1278 16.1388 42.7 16.5665L31.2667 27.9999L42.7 39.4332C43.1278 39.861 43.3417 40.4054 43.3417 41.0665C43.3417 41.7276 43.1278 42.2721 42.7 42.6999C42.2722 43.1276 41.7278 43.3415 41.0667 43.3415C40.4056 43.3415 39.8611 43.1276 39.4334 42.6999L28 31.2665Z" fill="black"/>
</svg>
